# xmcd
#
# Track frame offsets:
# 150
# 13009
# 26608
# 37781
# 50210
# 61381
# 76899
# 88078
# 104039
# 117973
# 131133
#
# Disc length: 1964 seconds
#
#
# Revision: 0
# Processed by: cddbd v1.5.1PL2 Copyright (c) Steve Scherf et al.
# Submitted via: FreeRIP 2.944 
#
DISCID=9207aa0b
DTITLE=Jimmy Reed - tain't no big thing but HE is...
DYEAR=2000
DGENRE=Blues
TTITLE0=Shame, Shame
TTITLE1=Mary-Mary
TTITLE2=Ain't No Big Deal
TTITLE3=Baby's So Sweet
TTITLE4=Mixed Up
TTITLE5=There'll Be a Day
TTITLE6=Up Tight
TTITLE7=Cold and Lonesome
TTITLE8=I'm Gonna Help You
TTITLE9=Up Side the Wall
TTITLE10=I'm Trying to Please You
EXTD=
EXTT0=
EXTT1=
EXTT2=
EXTT3=
EXTT4=
EXTT5=
EXTT6=
EXTT7=
EXTT8=
EXTT9=
EXTT10=
PLAYORDER=
